{
    "asset" : {
        "generator" : "Khronos glTF Blender I/O v3.2.43",
        "version" : "2.0"
    },
    "scene" : 0,
    "scenes" : [
        {
            "name" : "Scene",
            "nodes" : [
                0
            ]
        }
    ],
    "nodes" : [
        {
            "mesh" : 0,
            "name" : "export_mesh"
        }
    ],
    "meshes" : [
        {
            "name" : "mesh.024",
            "primitives" : [
                {
                    "attributes" : {
                        "POSITION" : 0,
                        "NORMAL" : 1,
                        "TEXCOORD_0" : 2,
                        "TEXCOORD_1" : 3
                    },
                    "indices" : 4
                }
            ]
        }
    ],
    "accessors" : [
        {
            "bufferView" : 0,
            "componentType" : 5126,
            "count" : 7401,
            "max" : [
                1,
                1,
                0
            ],
            "min" : [
                -1,
                -1,
                -0.07979976385831833
            ],
            "type" : "VEC3"
        },
        {
            "bufferView" : 1,
            "componentType" : 5126,
            "count" : 7401,
            "type" : "VEC3"
        },
        {
            "bufferView" : 2,
            "componentType" : 5126,
            "count" : 7401,
            "type" : "VEC2"
        },
        {
            "bufferView" : 3,
            "componentType" : 5126,
            "count" : 7401,
            "type" : "VEC2"
        },
        {
            "bufferView" : 4,
            "componentType" : 5123,
            "count" : 12129,
            "type" : "SCALAR"
        }
    ],
    "bufferViews" : [
        {
            "buffer" : 0,
            "byteLength" : 88812,
            "byteOffset" : 0
        },
        {
            "buffer" : 0,
            "byteLength" : 88812,
            "byteOffset" : 88812
        },
        {
            "buffer" : 0,
            "byteLength" : 59208,
            "byteOffset" : 177624
        },
        {
            "buffer" : 0,
            "byteLength" : 59208,
            "byteOffset" : 236832
        },
        {
            "buffer" : 0,
            "byteLength" : 24258,
            "byteOffset" : 296040
        }
    ],
    "buffers" : [
        {
            "byteLength" : 320300,
            "uri" : "data:application/octet-stream;base64,"
        }
    ]
}
