{
    "asset" : {
        "generator" : "Khronos glTF Blender I/O v3.2.43",
        "version" : "2.0"
    },
    "scene" : 0,
    "scenes" : [
        {
            "name" : "Scene",
            "nodes" : [
                0
            ]
        }
    ],
    "nodes" : [
        {
            "mesh" : 0,
            "name" : "Spiral",
            "rotation" : [
                0,
                -0.9216600656509399,
                0,
                0.38799840211868286
            ]
        }
    ],
    "meshes" : [
        {
            "name" : "Spiral",
            "primitives" : [
                {
                    "attributes" : {
                        "POSITION" : 0,
                        "NORMAL" : 1,
                        "TEXCOORD_0" : 2
                    },
                    "indices" : 3
                }
            ]
        }
    ],
    "accessors" : [
        {
            "bufferView" : 0,
            "componentType" : 5126,
            "count" : 746,
            "max" : [
                1.677948236465454,
                0.11001448333263397,
                1.5414448976516724
            ],
            "min" : [
                -1.5877951383590698,
                -2.2858333587646484,
                -1.6337971687316895
            ],
            "type" : "VEC3"
        },
        {
            "bufferView" : 1,
            "componentType" : 5126,
            "count" : 746,
            "type" : "VEC3"
        },
        {
            "bufferView" : 2,
            "componentType" : 5126,
            "count" : 746,
            "type" : "VEC2"
        },
        {
            "bufferView" : 3,
            "componentType" : 5123,
            "count" : 3216,
            "type" : "SCALAR"
        }
    ],
    "bufferViews" : [
        {
            "buffer" : 0,
            "byteLength" : 8952,
            "byteOffset" : 0
        },
        {
            "buffer" : 0,
            "byteLength" : 8952,
            "byteOffset" : 8952
        },
        {
            "buffer" : 0,
            "byteLength" : 5968,
            "byteOffset" : 17904
        },
        {
            "buffer" : 0,
            "byteLength" : 6432,
            "byteOffset" : 23872
        }
    ],
    "buffers" : [
        {
            "byteLength" : 30304,
            "uri" : "data:application/octet-stream;base64,"
        }
    ]
}
